<?xml version="1.0" ?><svg viewBox="0 0 512 512" xmlns="http://www.w3.org/2000/svg"><defs><style>.cls-1{fill:#2d57a0;}.cls-2{fill:#4379ba;}.cls-3{fill:#eabe50;}.cls-4{fill:#1d457f;}</style></defs><title/><g data-name="FILLED OUTLINE" id="FILLED_OUTLINE"><rect class="cls-1" height="304" rx="16" width="464" x="24" y="120"/><path class="cls-2" d="M24,376v32a16,16,0,0,0,16,16H472a16,16,0,0,0,16-16V376Z"/><path class="cls-3" d="M267.877,100.76514a17.15546,17.15546,0,0,0-23.7539,0l-11.1543-11.47168a33.26945,33.26945,0,0,1,46.0625,0Z"/><path class="cls-3" d="M291.15039,78.1377a50.7766,50.7766,0,0,0-70.30078,0L209.69531,66.666c25.53321-24.82422,67.07617-24.82422,92.60938,0Z"/><path class="cls-3" d="M197.57715,55.51025l-11.1543-11.47168c38.36621-37.30127,100.79-37.2998,139.1543,0l-11.1543,11.47168C282.21,24.189,229.792,24.189,197.57715,55.51025Z"/><rect class="cls-2" height="192" rx="16" width="128" x="192" y="152"/><polygon class="cls-1" points="296 424 216 424 200 488 312 487.408 296 424"/><rect class="cls-2" height="16" width="176" x="168" y="480"/><path class="cls-4" d="M304,152H207.50757A21.12319,21.12319,0,0,1,228,167.99994V168a21.12317,21.12317,0,0,0,20.49243,16h15.01514A21.12317,21.12317,0,0,0,284,168v-.00006A21.12319,21.12319,0,0,1,304.49243,152Z"/><path d="M232.96875,89.29346l11.1543,11.47168a17.15546,17.15546,0,0,1,23.7539,0l11.1543-11.47168A33.26945,33.26945,0,0,0,232.96875,89.29346Z"/><path d="M302.30469,66.666c-25.53321-24.82422-67.07617-24.82422-92.60938,0l11.1543,11.47168a50.7766,50.7766,0,0,1,70.30078,0Z"/><path d="M314.42285,55.51025l11.1543-11.47168c-38.36426-37.2998-100.78809-37.30127-139.1543,0l11.1543,11.47168C229.792,24.189,282.21,24.189,314.42285,55.51025Z"/><path d="M472,112H40a24.0275,24.0275,0,0,0-24,24V408a24.0275,24.0275,0,0,0,24,24H205.87988l-12.11206,48H168v16H344V480H318.38135l-12.11182-48H472a24.0275,24.0275,0,0,0,24-24V136A24.0275,24.0275,0,0,0,472,112ZM210.26953,480l12.11182-48h67.38647l12.11206,48ZM480,408a8.00917,8.00917,0,0,1-8,8H40a8.00917,8.00917,0,0,1-8-8V384H480Zm0-40H32V136a8.00917,8.00917,0,0,1,8-8H472a8.00917,8.00917,0,0,1,8,8Z"/><path d="M304.49219,144.01251V144H208c-.03931,0-.07788.00281-.11719.003l-.375-.003v.01251A24.0235,24.0235,0,0,0,184,168V328a24.0275,24.0275,0,0,0,24,24h96a24.0275,24.0275,0,0,0,24-24V168A24.0235,24.0235,0,0,0,304.49219,144.01251ZM278.51172,160a29.1834,29.1834,0,0,0-2.27246,6.06006A13.10448,13.10448,0,0,1,263.50781,176H248.49219a13.10448,13.10448,0,0,1-12.73145-9.93994A29.1834,29.1834,0,0,0,233.48828,160ZM312,328a8.00917,8.00917,0,0,1-8,8H208a8.00917,8.00917,0,0,1-8-8V168a8.00427,8.00427,0,0,1,7.77637-7.98865,13.09807,13.09807,0,0,1,12.46289,9.92859A29.079,29.079,0,0,0,248.49219,192h15.01562a29.079,29.079,0,0,0,28.25293-22.06006,13.09807,13.09807,0,0,1,12.46289-9.92859A8.00427,8.00427,0,0,1,312,168Z"/></g></svg>